<svg viewBox="0 0 280 400" xmlns="http://www.w3.org/2000/svg" xmlns:bx="https://boxy-svg.com">
  <defs>
    <bx:grid x="810.142" y="243.284" width="100" height="100"></bx:grid>
    <linearGradient gradientUnits="userSpaceOnUse" x1="140" y1="0" x2="140" y2="200.024" id="gradient-0" gradientTransform="matrix(-0.002932, 0.999996, -1.399832, 0.000952, 280.410639, -34.205211)">
      <stop offset="0" style="stop-color: rgb(216, 156, 184);"></stop>
      <stop offset="1" style="stop-color: rgb(140, 39, 165);"></stop>
    </linearGradient>
  </defs>
  <rect width="280" height="400" rx="4" ry="4" style="fill: rgb(255, 255, 255); stroke: rgb(151, 144, 144);"></rect>
  <path d="M 4 0 L 276 0 C 278.209 0 280 1.791 280 4 L 280 199.981 C 280 199.983 276.008 200 276 200 L 4 200 C 3.998 200 0 200.026 0 200.024 L 0 4 C 0 1.791 1.791 0 4 0 Z" style="stroke: rgba(0, 0, 0, 0); fill: url(#gradient-0);"></path>
  <text style="fill: rgb(51, 51, 51); font-family: &quot;Segoe UI&quot;, sans-serif; font-size: 34px; font-weight: 700; text-anchor: middle; white-space: pre;" transform="matrix(1, 0, 0, 1, 88.878174, -10.535748)"><tspan x="50.662" y="262.862">Custom</tspan><tspan x="50.6619987487793" dy="1em">​</tspan><tspan>Attachments</tspan></text>
  <rect x="72.635" y="320.687" width="134.729" height="48.82" rx="4" ry="4" style="fill: rgb(49, 119, 216); stroke: rgba(0, 0, 0, 0);"></rect>
  <text style="fill: rgb(255, 255, 255); font-family: &quot;Segoe UI&quot;, sans-serif; font-size: 29px; font-weight: 700; white-space: pre;" x="103.393" y="355.335">Open</text>
  <g transform="matrix(0.29651, 0, 0, 0.29651, 64.095909, 22.228134)">
    <path id="XMLID_1249_" d="m29.912 501.962v-491.962h296l64 63.962v428z" fill="#eff3f3" data-original="#eff3f3" class=""></path>
    <path id="XMLID_1208_" d="m325.912 9.962v64h64z" fill="#ffd493" data-original="#ffe6c0" class=""></path>
    <path id="XMLID_1714_" d="m312.323 493.935c-28.652-16.542-38.504-53.31-21.962-81.962l70.702-122.459c5.523-9.566 17.754-12.843 27.32-7.32s12.843 17.754 7.321 27.32l-70.702 122.459c-5.514 9.55-2.23 21.806 7.32 27.32s21.807 2.23 27.32-7.32l74.378-128.823c16.542-28.652 6.69-65.419-21.962-81.961s-65.419-6.69-81.961 21.961l-90.03 155.936c-5.523 9.566-17.754 12.843-27.32 7.321-9.566-5.523-12.843-17.754-7.321-27.321l90.03-155.936c27.57-47.753 88.849-64.172 136.602-36.602s64.173 88.849 36.603 136.602l-74.376 128.824c-16.543 28.651-53.311 38.503-81.962 21.961z" fill="#f1a32c" data-original="#ffcb7c" class=""></path>
    <path id="XMLID_1603_" d="m488.265 264.692c-7.612-28.41-25.798-52.135-51.207-66.805-11.825-6.827-24.406-11.194-37.146-13.276v-110.649c0-2.653-1.055-5.198-2.931-7.073l-64-63.962c-1.876-1.874-4.418-2.927-7.069-2.927h-296c-5.522 0-10 4.477-10 10v491.962c0 5.523 4.478 10 10 10h310.966c.428.008.855.021 1.283.021 6.091 0 12.227-.802 18.271-2.422 18.078-4.844 33.176-16.417 42.512-32.587l74.377-128.823c14.67-25.409 18.557-55.048 10.944-83.459zm-152.353-230.56 29.848 29.83h-29.848zm-296-14.132h276v53.962c0 5.523 4.478 10 10 10h54v99.237c-37.222.788-73.181 20.422-93.116 54.951l-4.51 7.812h-180.374c-5.522 0-10 4.477-10 10s4.478 10 10 10h168.827l-25.404 44h-143.423c-5.522 0-10 4.477-10 10s4.478 10 10 10h131.876l-25.404 44h-106.472c-5.522 0-10 4.477-10 10s4.478 10 10 10h94.925l-.072.125c-8.271 14.326-3.344 32.71 10.981 40.98 6.938 4.006 15.021 5.07 22.765 2.997 7.739-2.074 14.209-7.038 18.216-13.978l90.029-155.936c13.784-23.876 44.424-32.087 68.302-18.301 23.876 13.785 32.086 44.425 18.301 68.301l-74.376 128.823c-1.331 2.306-3.488 3.958-6.074 4.65-2.588.694-5.28.341-7.586-.99-2.306-1.332-3.958-3.489-4.65-6.075s-.341-5.28.99-7.586l70.702-122.46c8.271-14.326 3.345-32.709-10.981-40.98-14.325-8.271-32.708-3.345-40.98 10.98l-70.702 122.459c-16.287 28.211-10.642 63.165 11.61 84.988h-253.4zm420.089 318.15-74.377 128.823c-6.665 11.544-17.449 19.808-30.367 23.269-12.921 3.461-26.391 1.697-37.934-4.968-23.876-13.785-32.087-44.425-18.302-68.301l70.702-122.459c1.851-3.205 5.219-4.998 8.677-4.998 1.695 0 3.413.431 4.983 1.337 4.775 2.757 6.418 8.885 3.661 13.66l-70.702 122.459c-4.003 6.932-5.064 15.016-2.988 22.763 2.075 7.746 7.036 14.216 13.969 18.219 6.934 4.004 15.019 5.063 22.763 2.988 7.746-2.076 14.216-7.037 18.218-13.969l74.376-128.823c19.299-33.427 7.806-76.323-25.621-95.622-33.428-19.299-76.322-7.805-95.622 25.622l-90.029 155.936c-1.336 2.313-3.492 3.968-6.072 4.66-2.578.691-5.273.337-7.588-.999-4.775-2.757-6.418-8.885-3.661-13.661l90.03-155.936c24.813-42.978 79.967-57.753 122.942-32.942 42.977 24.813 57.755 79.965 32.942 122.942z" fill="#000000" data-original="#000000" class=""></path>
    <path id="XMLID_1614_" d="m146.912 137.962h171c5.522 0 10-4.477 10-10s-4.478-10-10-10h-171c-5.522 0-10 4.477-10 10s4.477 10 10 10z" fill="#000000" data-original="#000000" class=""></path>
    <path id="XMLID_1615_" d="m101.915 137.962c2.63 0 5.2-1.07 7.07-2.93 1.86-1.86 2.93-4.44 2.93-7.07s-1.069-5.21-2.93-7.07c-1.86-1.86-4.44-2.93-7.07-2.93-2.64 0-5.22 1.07-7.08 2.93-1.859 1.86-2.92 4.44-2.92 7.07s1.061 5.21 2.92 7.07c1.87 1.86 4.44 2.93 7.08 2.93z" fill="#000000" data-original="#000000" class=""></path>
    <path id="XMLID_1640_" d="m101.912 201.962h183.334c5.522 0 10-4.477 10-10s-4.478-10-10-10h-183.334c-5.522 0-10 4.477-10 10s4.477 10 10 10z" fill="#000000" data-original="#000000" class=""></path>
  </g>
</svg>