<svg viewBox="0 0 280 400" xmlns="http://www.w3.org/2000/svg" xmlns:bx="https://boxy-svg.com">
  <defs>
    <bx:grid x="810.142" y="243.284" width="100" height="100"></bx:grid>
    <linearGradient gradientUnits="userSpaceOnUse" x1="140" y1="0" x2="140" y2="200.024" id="gradient-0" gradientTransform="matrix(-0.002932, 0.999996, -1.399832, 0.000952, 280.410423, -34.205211)">
      <stop offset="0" style="stop-color: rgb(255, 247, 0);"></stop>
      <stop offset="1" style="stop-color: rgb(231, 123, 0);"></stop>
    </linearGradient>
  </defs>
  <rect width="280" height="400" rx="4" ry="4" style="fill: rgb(255, 255, 255); stroke: rgb(151, 144, 144);"></rect>
  <path d="M 4 0 L 276 0 C 278.209 0 280 1.791 280 4 L 280 199.981 C 280 199.983 276.008 200 276 200 L 4 200 C 3.998 200 0 200.026 0 200.024 L 0 4 C 0 1.791 1.791 0 4 0 Z" style="stroke: rgba(0, 0, 0, 0); fill: url(#gradient-0);"></path>
  <text style="fill: rgb(51, 51, 51); font-family: &quot;Segoe UI&quot;, sans-serif; font-size: 34px; font-weight: 700; text-anchor: middle; white-space: pre;" transform="matrix(1, 0, 0, 1, 88.877991, -10.535748)"><tspan x="50.662" y="262.862">Eisenhower</tspan><tspan x="50.662" dy="1em">​</tspan><tspan>Matrix</tspan></text>
  <rect x="72.635" y="320.687" width="134.729" height="48.82" rx="4" ry="4" style="fill: rgb(49, 119, 216); stroke: rgba(0, 0, 0, 0);"></rect>
  <text style="fill: rgb(255, 255, 255); font-family: &quot;Segoe UI&quot;, sans-serif; font-size: 29px; font-weight: 700; white-space: pre;" x="103.393" y="355.335">Open</text>
  <g transform="matrix(5.833333, 0, 0, 5.833333, 70, 27.984051)">
    <g xmlns="http://www.w3.org/2000/svg" id="Layer_3">
      <g>
        <path d="m2.75 11h5.5c1.517 0 2.75-1.233 2.75-2.75v-5.5c0-1.517-1.233-2.75-2.75-2.75h-5.5c-1.517 0-2.75 1.233-2.75 2.75v5.5c0 1.517 1.233 2.75 2.75 2.75z" data-original="#42a5f5" class="" style="fill: rgb(101, 245, 125);"></path>
      </g>
      <g>
        <path d="m21.25 0h-5.5c-1.517 0-2.75 1.233-2.75 2.75v5.5c0 1.517 1.233 2.75 2.75 2.75h5.5c1.517 0 2.75-1.233 2.75-2.75v-5.5c0-1.517-1.233-2.75-2.75-2.75z" fill="#42a5f5" data-original="#42a5f5" class=""></path>
      </g>
      <g>
        <path d="m2.75 24h5.5c1.517 0 2.75-1.233 2.75-2.75v-5.5c0-1.517-1.233-2.75-2.75-2.75h-5.5c-1.517 0-2.75 1.233-2.75 2.75v5.5c0 1.517 1.233 2.75 2.75 2.75z" data-original="#90caf9" style="fill: rgb(244, 249, 156);"></path>
      </g>
      <g>
        <path d="m21.25 13h-5.5c-1.517 0-2.75 1.233-2.75 2.75v5.5c0 1.517 1.233 2.75 2.75 2.75h5.5c1.517 0 2.75-1.233 2.75-2.75v-5.5c0-1.517-1.233-2.75-2.75-2.75z" data-original="#90caf9" style="fill: rgb(249, 148, 150);"></path>
      </g>
    </g>
    <g xmlns="http://www.w3.org/2000/svg" id="Layer_2">
      <g>
        <path d="m9.25 11h-7.5c-.965 0-1.75-.785-1.75-1.75v-7.5c0-.965.785-1.75 1.75-1.75h7.5c.965 0 1.75.785 1.75 1.75v7.5c0 .965-.785 1.75-1.75 1.75zm-7.5-9.5c-.138 0-.25.112-.25.25v7.5c0 .138.112.25.25.25h7.5c.138 0 .25-.112.25-.25v-7.5c0-.138-.112-.25-.25-.25z" fill="#000000" data-original="#000000" class=""></path>
      </g>
      <g>
        <path d="m22.25 11h-7.5c-.965 0-1.75-.785-1.75-1.75v-7.5c0-.965.785-1.75 1.75-1.75h7.5c.965 0 1.75.785 1.75 1.75v7.5c0 .965-.785 1.75-1.75 1.75zm-7.5-9.5c-.138 0-.25.112-.25.25v7.5c0 .138.112.25.25.25h7.5c.138 0 .25-.112.25-.25v-7.5c0-.138-.112-.25-.25-.25z" fill="#000000" data-original="#000000" class=""></path>
      </g>
      <g>
        <path d="m9.25 24h-7.5c-.965 0-1.75-.785-1.75-1.75v-7.5c0-.965.785-1.75 1.75-1.75h7.5c.965 0 1.75.785 1.75 1.75v7.5c0 .965-.785 1.75-1.75 1.75zm-7.5-9.5c-.138 0-.25.112-.25.25v7.5c0 .138.112.25.25.25h7.5c.138 0 .25-.112.25-.25v-7.5c0-.138-.112-.25-.25-.25z" fill="#000000" data-original="#000000" class=""></path>
      </g>
      <g>
        <path d="m22.25 24h-7.5c-.965 0-1.75-.785-1.75-1.75v-7.5c0-.965.785-1.75 1.75-1.75h7.5c.965 0 1.75.785 1.75 1.75v7.5c0 .965-.785 1.75-1.75 1.75zm-7.5-9.5c-.138 0-.25.112-.25.25v7.5c0 .138.112.25.25.25h7.5c.138 0 .25-.112.25-.25v-7.5c0-.138-.112-.25-.25-.25z" fill="#000000" data-original="#000000" class=""></path>
      </g>
    </g>
  </g>
</svg>