<svg viewBox="0 0 280 400" width="280px" height="400px" xmlns="http://www.w3.org/2000/svg" xmlns:bx="https://boxy-svg.com">
  <defs>
    <bx:grid x="810.142" y="243.284" width="100" height="100"></bx:grid>
    <linearGradient gradientUnits="userSpaceOnUse" x1="140" y1="0" x2="140" y2="200.024" id="gradient-0" gradientTransform="matrix(-0.002932, 0.999996, -1.399832, 0.000952, 810.55249, 36.946407)">
      <stop offset="0" style="stop-color: rgb(150, 216, 198);"></stop>
      <stop offset="1" style="stop-color: rgb(0, 160, 80);"></stop>
    </linearGradient>
    <linearGradient gradientUnits="userSpaceOnUse" x1="409.227" y1="124.449" x2="409.227" y2="390.417" id="gradient-2" gradientTransform="matrix(0.904791, 0.425858, -0.236145, 0.397356, 74.501352, 46.505941)">
      <stop offset="0" style="stop-color: rgba(255, 189, 83, 1)"></stop>
      <stop offset="1" style="stop-color: rgb(214, 132, 0);"></stop>
    </linearGradient>
    <radialGradient gradientUnits="userSpaceOnUse" cx="212.01" cy="146" r="82" id="gradient-1" gradientTransform="matrix(1.442623, 0.026037, -0.018046, 0.999837, -91.2058, -5.496412)">
      <stop offset="0" style="stop-color: rgb(254, 210, 99);"></stop>
      <stop offset="1" style="stop-color: rgb(8, 144, 189);"></stop>
    </radialGradient>
  </defs>
  <g transform="matrix(1, 0, 0, 1, -530.142029, -71.152)">
    <rect width="280" height="400" rx="4" ry="4" style="fill: rgb(255, 255, 255); stroke: rgb(151, 144, 144);" x="530.142" y="71.152"></rect>
    <path d="M 534.142 71.152 L 806.142 71.152 C 808.351 71.152 810.142 72.943 810.142 75.152 L 810.142 271.133 C 810.142 271.135 806.15 271.152 806.142 271.152 L 534.142 271.152 C 534.14 271.152 530.142 271.178 530.142 271.176 L 530.142 75.152 C 530.142 72.943 531.933 71.152 534.142 71.152 Z" style="stroke: rgba(0, 0, 0, 0); fill: url(#gradient-0);"></path>
    <text style="fill: rgb(51, 51, 51); font-family: &quot;Segoe UI&quot;, sans-serif; font-size: 32px; font-weight: 700; text-anchor: middle; white-space: pre;" transform="matrix(1, 0, 0, 1, 619.02002, 60.615875)" y="262.86199951171875" x="50.6619987487793">Build your<tspan x="50.6619987487793" dy="1.2em">​</tspan>Internal CV</text>
    <rect x="602.777" y="391.839" width="134.729" height="48.82" rx="4" ry="4" style="fill: rgb(49, 119, 216); stroke: rgba(0, 0, 0, 0);"></rect>
    <text style="fill: rgb(255, 255, 255); font-family: &quot;Segoe UI&quot;, sans-serif; font-size: 29px; font-weight: 700; white-space: pre;" x="633.535" y="426.487">Open</text>
  </g>
  <g transform="matrix(0.292977, 0, 0, 0.292977, 76.997856, 24.130014)">
    <path d="M394.007 502h-364c-11.046 0-20-8.954-20-20V30c0-11.046 8.954-20 20-20h364c11.046 0 20 8.954 20 20v452c0 11.046-8.954 20-20 20z" style="" fill="#ffffff" data-original="#ffffff" class=""></path>
    <circle cx="212.01" cy="146" r="82" style="fill: url(#gradient-1);" data-original="#fe6663"></circle>
    <path d="M238.007 135.5v6.5c0 14.359-11.641 26-26 26s-26-11.641-26-26v-6.5c0-14.359 11.641-26 26-26s26 11.641 26 26z" style="" fill="#ffcdac" data-original="#ffcdac"></path>
    <path d="M212.007 168c-25.38 0-47.064 15.767-55.832 38.033C170.815 219.655 190.432 228 212.007 228s41.192-8.345 55.832-21.967C259.071 183.767 237.387 168 212.007 168z" style="fill: rgb(135, 167, 242);" data-original="#a5ddff"></path>
    <rect style="fill: rgb(216, 216, 216); stroke: rgb(0, 0, 0); stroke-width: 10.2397px; fill-opacity: 0;" x="10.007" y="10.153" width="404.127" height="491.847" rx="17.066" ry="17.066"></rect>
    <path d="M371.873 400.656 307.589 448l8.858-79.344z" style="fill: rgb(174, 174, 174);" data-original="#9ad8ff"></path>
    <path d="M304.007 146c0-50.729-41.271-92-92-92s-92 41.271-92 92c0 26.317 11.11 50.085 28.882 66.869.333.356.687.693 1.074 1 16.371 14.979 38.158 24.13 62.043 24.13s45.672-9.152 62.043-24.13a9.993 9.993 0 0 0 1.074-1c17.774-16.784 28.884-40.552 28.884-66.869zm-92-72c39.701 0 72 32.299 72 72 0 15.967-5.231 30.73-14.06 42.683a69.375 69.375 0 0 0-29.463-24.697c4.71-6.087 7.523-13.712 7.523-21.986v-6.5c0-19.851-16.149-36-36-36s-36 16.149-36 36v6.5c0 8.274 2.813 15.899 7.523 21.986a69.375 69.375 0 0 0-29.463 24.697c-8.829-11.953-14.06-26.716-14.06-42.683 0-39.701 32.299-72 72-72zm-16 68v-6.5c0-8.822 7.178-16 16-16s16 7.178 16 16v6.5c0 8.822-7.178 16-16 16s-16-7.178-16-16zm-27.491 61.332c8.789-15.585 25.19-25.332 43.491-25.332s34.702 9.747 43.491 25.332C243.405 212.528 228.336 218 212.007 218s-31.399-5.472-43.491-14.668zM266.007 438h-54c-5.522 0-10 4.477-10 10s4.478 10 10 10h54c5.522 0 10-4.477 10-10s-4.478-10-10-10zM266.007 382h-142c-5.522 0-10 4.477-10 10s4.478 10 10 10h142c5.522 0 10-4.477 10-10s-4.478-10-10-10zM266.007 326h-142c-5.522 0-10 4.477-10 10s4.478 10 10 10h142c5.522 0 10-4.477 10-10s-4.478-10-10-10zM88.366 272.93a10.077 10.077 0 0 0-7.079-2.93c-2.631 0-5.211 1.07-7.07 2.93-1.86 1.86-2.93 4.44-2.93 7.07s1.069 5.21 2.93 7.07a10.092 10.092 0 0 0 7.07 2.93c2.64 0 5.21-1.07 7.079-2.93 1.86-1.86 2.931-4.44 2.931-7.07s-1.07-5.21-2.931-7.07zM88.366 328.93a10.095 10.095 0 0 0-7.079-2.93c-2.631 0-5.2 1.07-7.07 2.93-1.86 1.86-2.93 4.44-2.93 7.07s1.069 5.21 2.93 7.07a10.092 10.092 0 0 0 7.07 2.93c2.64 0 5.21-1.07 7.079-2.93 1.86-1.86 2.931-4.44 2.931-7.07s-1.07-5.21-2.931-7.07zM81.287 382c-2.631 0-5.2 1.07-7.07 2.93-1.86 1.86-2.93 4.44-2.93 7.07s1.069 5.21 2.93 7.07a10.072 10.072 0 0 0 7.07 2.93c2.64 0 5.22-1.07 7.079-2.93 1.86-1.86 2.931-4.44 2.931-7.07s-1.07-5.21-2.931-7.07a10.095 10.095 0 0 0-7.079-2.93zM266.007 270h-142c-5.522 0-10 4.477-10 10s4.478 10 10 10h142c5.522 0 10-4.477 10-10s-4.478-10-10-10zM491.002 130.32c-9.715-5.609-21.033-7.099-31.871-4.196-10.836 2.904-19.894 9.854-25.502 19.569L307.787 363.656a10.016 10.016 0 0 0-1.278 3.891l-8.858 79.344a10.004 10.004 0 0 0 9.937 11.11 9.99 9.99 0 0 0 5.931-1.948l64.284-47.344a9.983 9.983 0 0 0 2.73-3.052l125.841-217.963c11.58-20.056 4.684-45.794-15.372-57.374zM324.689 384.962l28.942 16.71-33.568 24.722 4.626-41.432zm43.524 2.034-38.105-22 100.985-174.91 38.105 22-100.985 174.91zm120.841-209.303-9.857 17.073-38.105-22 9.857-17.073a21.855 21.855 0 0 1 13.358-10.25 21.85 21.85 0 0 1 16.694 2.198 21.855 21.855 0 0 1 10.25 13.358 21.856 21.856 0 0 1-2.197 16.694z" fill="#000000" data-original="#000000" class=""></path>
    <path d="M 437.945 157.607 L 443.659 147.71 C 452.496 132.405 472.066 127.161 487.372 135.997 C 502.677 144.834 507.921 164.404 499.085 179.71 L 373.244 397.673 L 317.818 365.673 L 372.1 271.653 L 437.945 157.607 Z" style="fill: url(#gradient-2);" data-original="#ffbc53" transform="matrix(0.999968, 0.008014, -0.008014, 0.999968, 2.134402, -3.282029)"></path>
    <path d="M 487.559 135.785 C 471.415 126.948 450.77 132.192 441.449 147.498 L 425.777 173.231 L 484.241 205.231 L 499.913 179.498 C 509.235 164.193 503.702 144.622 487.559 135.785 Z" style="" fill="#fe6663" data-original="#fe6663" transform="matrix(0.999907, -0.013651, 0.013651, 0.999907, -2.254966, 6.364892)"></path>
    <line style="fill: rgb(216, 216, 216); stroke: rgb(0, 0, 0); stroke-width: 6.82647px;" x1="424.847" y1="173.752" x2="494.286" y2="203.926" transform="matrix(0.996017, 0.089162, -0.089162, 0.996017, 18.66762, -40.223683)"></line>
    <rect x="113.129" y="269.121" width="162.545" height="20.614" rx="9.188" ry="9.188" style="fill: rgb(62, 136, 246); stroke: rgb(62, 136, 246);"></rect>
    <rect x="113.129" y="325.361" width="162.545" height="20.614" rx="9.188" ry="9.188" style="fill: rgb(0, 148, 72); stroke: rgb(0, 148, 72);"></rect>
    <rect x="113.129" y="381.211" width="162.545" height="20.614" rx="9.188" ry="9.188" style="stroke: rgb(188, 0, 69); fill: rgb(188, 0, 69);"></rect>
  </g>
  <path d="M 345.574 143.284 L 353.393 161.073 L 337.755 161.073 L 345.574 143.284 Z" style="fill: rgb(216, 216, 216); stroke: rgb(0, 0, 0);" transform="matrix(-0.871336, -0.490686, 0.490686, -0.871336, 398.373718, 448.840942)" bx:shape="triangle 337.755 143.284 15.638 17.789 0.5 0 1@030685f4"></path>
</svg>