<svg viewBox="0 0 806 250" xmlns="http://www.w3.org/2000/svg">
  <rect width="800" height="250" rx="7.836" ry="7.836" style="fill: rgb(235, 243, 250); stroke-width: 4px; stroke: rgb(183, 211, 235);" x="3"></rect>
  <g transform="matrix(4.176471, 0, 0, 4.176471, 42.518002, 53.999996)">
    <g transform="matrix(1, 0, 0, 1, 2.073498, 0)">
      <text style="fill: #0a66c2; font-family: &quot;Segoe UI&quot;; font-size: 75px; font-weight: 700; text-anchor: middle; white-space: pre;" transform="matrix(0.239437, 0, 0, 0.239437, 55.028839, -18.244476)"><tspan x="224.436" y="140.608">My LinkedIn<tspan x="224.43600463867188" dy="1em">​</tspan></tspan>Profile</text>
      <path d="M 41.648 2.5 L 41.648 31.5 C 41.648 32.881 40.529 34 39.148 34 L 10.148 34 C 8.768 34 7.648 32.881 7.648 31.5 L 7.648 2.5 C 7.648 1.119 8.768 0 10.148 0 L 39.148 0 C 40.529 0 41.648 1.119 41.648 2.5 Z M 17.648 13 L 12.648 13 L 12.648 29 L 17.648 29 L 17.648 13 Z M 18.098 7.5 C 18.11 5.909 16.829 4.611 15.238 4.6 L 15.148 4.6 C 12.916 4.6 11.521 7.017 12.637 8.95 C 13.155 9.847 14.112 10.4 15.148 10.4 C 16.739 10.439 18.06 9.181 18.098 7.59 L 18.098 7.5 Z M 36.648 19.28 C 36.648 14.47 33.588 12.6 30.548 12.6 C 28.523 12.499 26.596 13.481 25.488 15.18 L 25.348 15.18 L 25.348 13 L 20.648 13 L 20.648 29 L 25.648 29 L 25.648 20.49 C 25.498 18.676 26.836 17.079 28.648 16.91 L 28.838 16.91 C 30.428 16.91 31.608 17.91 31.608 20.43 L 31.608 29 L 36.608 29 L 36.648 19.28 Z" fill="#0a66c2"></path>
    </g>
  </g>
</svg>